<svg xmlns="http://www.w3.org/2000/svg" viewBox="0 0 32 32"><path d="M16 0c8.837 0 16 7.163 16 16s-7.163 16-16 16S0 24.837 0 16 7.163 0 16 0Zm-5 16.617a1.17 1.17 0 0 0-1.172 1.17c0 4.377 3.556 7.925 7.942 7.925a1.17 1.17 0 1 0 0-2.338 5.593 5.593 0 0 1-5.598-5.587A1.17 1.17 0 0 0 11 16.617Zm13.544-3.574a1.17 1.17 0 0 0-1.172 1.17 5.593 5.593 0 0 1-5.599 5.586 1.17 1.17 0 1 0 0 2.34c4.387 0 7.943-3.55 7.943-7.927a1.17 1.17 0 0 0-1.172-1.169ZM14.23 9.863c-4.386 0-7.942 3.549-7.942 7.926 0 .646.525 1.17 1.172 1.17a1.17 1.17 0 0 0 1.172-1.17 5.593 5.593 0 0 1 5.598-5.587 1.17 1.17 0 1 0 0-2.339Zm.019-3.578a1.17 1.17 0 0 0-1.172 1.17c0 .645.525 1.169 1.172 1.169a5.593 5.593 0 0 1 5.599 5.587 1.17 1.17 0 0 0 2.344 0c0-4.377-3.557-7.926-7.943-7.926Z" fill-rule="evenodd"/></svg>
